PathFileType	4	(X/Y/Z)	C:/Users/opensim2020/Desktop/walking_exp_matlab/subject06_walking13_straight_04.trc																																																																																																																																																				
DataRate	CameraRate	NumFrames	NumMarkers	Units	OrigDataRate	OrigDataStartFrame	OrigNumFrames																																																																																																																																																
100	100	7	50	mm	100	2987	204																																																																																																																																																
Frame#	Time	LFHD			RFHD			LBHD			RBHD			C7			T10			CLAV			STRN			RBAK			LSHO			LUPA			LELB			LFRM			LWRA			LWRB			LFIN			RSHO			RUPA			RELB			RFRM			RWRA			RWRB			RFIN			LASI			RASI			LPSI			RPSI			LTHI			LKNE			LTIB			LANK			LHEE			LTOE			RTHI			RKNE			RTIB			RANK			RHEE			RTOE			*39			*40			*41			*42			*43			*44			*45			*46			*47			*48			*49		
		X1	Y1	Z1	X2	Y2	Z2	X3	Y3	Z3	X4	Y4	Z4	X5	Y5	Z5	X6	Y6	Z6	X7	Y7	Z7	X8	Y8	Z8	X9	Y9	Z9	X10	Y10	Z10	X11	Y11	Z11	X12	Y12	Z12	X13	Y13	Z13	X14	Y14	Z14	X15	Y15	Z15	X16	Y16	Z16	X17	Y17	Z17	X18	Y18	Z18	X19	Y19	Z19	X20	Y20	Z20	X21	Y21	Z21	X22	Y22	Z22	X23	Y23	Z23	X24	Y24	Z24	X25	Y25	Z25	X26	Y26	Z26	X27	Y27	Z27	X28	Y28	Z28	X29	Y29	Z29	X30	Y30	Z30	X31	Y31	Z31	X32	Y32	Z32	X33	Y33	Z33	X34	Y34	Z34	X35	Y35	Z35	X36	Y36	Z36	X37	Y37	Z37	X38	Y38	Z38	X39	Y39	Z39	X40	Y40	Z40	X41	Y41	Z41	X42	Y42	Z42	X43	Y43	Z43	X44	Y44	Z44	X45	Y45	Z45	X46	Y46	Z46	X47	Y47	Z47	X48	Y48	Z48	X49	Y49	Z49	X50	Y50	Z50
																																																																																																																																																							
128	1.27	38.56239	1651.44153	-1499.47217	23.83442	1633.86951	-1369.03333	-92.59055	1593.77625	-1517.38818	-106.15051	1582.40271	-1389.24255	-96.59935	1432.32422	-1463.40466	-122.02302	1101.90234	-1455.22168	16.79457	1358.57922	-1454.80078	60.92585	1184.93445	-1464.31323	-168.51224	1259.60339	-1392.68591	-31.80191	1391.29614	-1619.45752	6.86993	1199.74341	-1705.53625	36.73646	1093.34473	-1729.29932	145.70772	991.50903	-1742.96521	258.68814	947.15094	-1685.7417	223.71419	902.03339	-1727.28296	309.03094	875.03314	-1720.68262	-40.59106	1387.36157	-1296.22034	-115.36945	1196.06958	-1218.42725	-126.81683	1074.29211	-1207.83313	-142.59961	955.0603	-1189.69775	-118.58495	802.95593	-1214.25842	-173.93791	820.8476	-1178.69812	-161.50922	736.53876	-1174.60425	57.08638	946.82391	-1570.58154	68.26381	956.29962	-1349.68628	-100.42838	969.92609	-1531.51917	-84.25468	970.23907	-1363.00427	-45.9618	636.21606	-1616.67773	-78.3717	473.63675	-1591.77527	-209.68265	249.08592	-1581.53796	-284.77155	91.95968	-1534.87061	-332.68488	91.22949	-1495.37207	-151.57701	38.99342	-1511.51917	90.82097	626.56696	-1283.36865	136.05075	510.29739	-1316.03455	180.09871	254.77632	-1317.46655	239.12386	76.54375	-1360.08521	212.97136	40.30246	-1408.01648	394.64737	88.98531	-1361.47131	-68.96057	1684.62061	-1450.16589	NaN	NaN	NaN	NaN	NaN	NaN	NaN	NaN	NaN	NaN	NaN	NaN	NaN	NaN	NaN	NaN	NaN	NaN	NaN	NaN	NaN	NaN	NaN	NaN	NaN	NaN	NaN	NaN	NaN	NaN
129	1.28	49.62861	1650.672	-1498.62317	34.76301	1632.9873	-1368.14966	-81.49492	1593.11096	-1516.73572	-95.12872	1581.5835	-1388.60583	-85.47234	1431.35461	-1462.6925	-110.06544	1100.93774	-1454.74182	28.1006	1357.88074	-1454.1626	72.74988	1184.39465	-1463.83838	-156.86769	1258.43665	-1392.17334	-20.80541	1390.61731	-1618.79639	17.97715	1199.0332	-1704.60559	48.11053	1092.77515	-1728.21875	158.10214	992.24451	-1741.93909	271.70233	949.6264	-1684.75952	237.26123	903.8465	-1725.95483	322.97174	878.29779	-1719.77917	-29.38706	1386.5155	-1295.56567	-104.20823	1195.26843	-1217.89575	-115.58203	1073.54053	-1207.22229	-131.87491	954.32971	-1188.85144	-107.83817	802.16864	-1213.5271	-163.07181	820.28076	-1177.88257	-151.04601	735.79462	-1173.7843	69.04355	945.854	-1570.14673	80.71904	955.80182	-1349.13574	-88.25951	969.03186	-1530.65967	-71.55694	969.75195	-1362.30408	-35.2217	635.24298	-1616.17883	-68.06503	472.77408	-1591.59644	-204.20087	250.72415	-1581.68018	-282.62271	95.35181	-1535.88257	-330.85886	95.88198	-1496.55798	-151.64499	39.05844	-1511.69189	103.4193	626.30322	-1283.70203	148.93095	510.54166	-1316.67395	189.44511	253.20618	-1317.78528	244.42961	74.12769	-1360.70154	216.83212	39.45356	-1407.73401	399.95804	84.14816	-1364.09326	-57.90228	1683.8512	-1449.38416	NaN	NaN	NaN	NaN	NaN	NaN	NaN	NaN	NaN	NaN	NaN	NaN	NaN	NaN	NaN	NaN	NaN	NaN	NaN	NaN	NaN	NaN	NaN	NaN	NaN	NaN	NaN	NaN	NaN	NaN
130	1.29	60.64608	1650.00903	-1497.80322	45.79854	1632.21484	-1367.37146	-70.46651	1592.43982	-1515.9585	-84.09618	1580.79431	-1387.85583	-74.41615	1430.4624	-1462.02942	-97.85524	1100.05981	-1454.10144	39.48619	1357.29639	-1453.51709	84.68435	1183.89697	-1463.2522	-145.1344	1257.34875	-1391.65173	-9.69219	1390.03125	-1618.10242	29.05326	1198.36865	-1703.6217	59.23063	1092.22485	-1726.98767	169.85121	992.71198	-1740.49805	284.20197	951.66998	-1683.65063	250.21448	905.3103	-1724.50806	336.31818	880.93695	-1718.72351	-18.10275	1385.81018	-1294.89746	-92.78081	1194.54761	-1217.34045	-104.057	1072.80005	-1206.55713	-120.40766	953.64783	-1188.05469	-96.60587	801.41034	-1212.79565	-151.81876	819.5365	-1177.11536	-139.8051	735.10632	-1172.98364	81.17529	945.0401	-1569.71912	93.4397	955.37195	-1348.49255	-75.91922	968.2699	-1529.73755	-58.9589	969.53979	-1361.41833	-24.02341	634.3194	-1615.62366	-57.24898	471.91769	-1591.3595	-198.08672	252.75046	-1582.06445	-280.172	99.15497	-1536.80627	-328.69263	101.07249	-1498.0022	-151.08583	38.98662	-1511.69263	116.20212	626.09167	-1284.29834	161.76106	510.99982	-1317.70923	197.81268	251.49611	-1318.35974	247.30629	71.29647	-1361.67566	218.48158	38.2435	-1408.72717	403.06906	76.72807	-1366.44397	-46.87538	1683.11816	-1448.56128	NaN	NaN	NaN	NaN	NaN	NaN	NaN	NaN	NaN	NaN	NaN	NaN	NaN	NaN	NaN	NaN	NaN	NaN	NaN	NaN	NaN	NaN	NaN	NaN	NaN	NaN	NaN	NaN	NaN	NaN
131	1.3	71.69661	1649.6438	-1497.07214	56.83929	1631.72949	-1366.52258	-59.46055	1591.83142	-1515.18481	-73.0737	1580.20447	-1387.08386	-63.41743	1429.71948	-1461.28784	-85.36488	1099.27917	-1453.32935	50.94126	1356.9939	-1452.78687	96.66362	1183.64246	-1462.60071	-133.48729	1256.31177	-1391.11987	1.4923	1389.49426	-1617.34033	40.05719	1197.72192	-1702.58496	70.0295	1091.62439	-1725.7583	181.42514	992.86353	-1739.39038	296.10483	953.21906	-1682.42871	262.43243	906.29907	-1722.94617	348.79739	883.05328	-1717.55652	-6.75702	1385.29102	-1294.17871	-81.15513	1193.85315	-1216.71057	-92.25359	1072.11609	-1205.8634	-108.58028	952.97693	-1187.39709	-84.67147	800.6156	-1211.92822	-139.86227	819.0556	-1176.29773	-128.00465	734.46399	-1172.24963	93.56654	944.38739	-1569.26086	106.04832	955.01709	-1347.72144	-63.56838	967.716	-1528.78247	-46.30216	969.49713	-1359.9043	-12.44833	633.34119	-1614.91418	-45.8924	470.99579	-1590.85913	-191.216	255.17178	-1582.85535	-277.28833	103.34256	-1537.80286	-325.7934	106.61931	-1499.17358	-150.67899	38.98547	-1511.7041	129.52071	626.58783	-1285.27112	175.24782	512.05646	-1319.04041	205.3438	250.71643	-1319.82227	250.2243	70.52257	-1362.43726	220.29958	40.02341	-1409.58862	406.63754	67.45815	-1367.5166	-35.99098	1682.56067	-1447.79358	NaN	NaN	NaN	NaN	NaN	NaN	NaN	NaN	NaN	NaN	NaN	NaN	NaN	NaN	NaN	NaN	NaN	NaN	NaN	NaN	NaN	NaN	NaN	NaN	NaN	NaN	NaN	NaN	NaN	NaN
132	1.31	82.53165	1650.06116	-1496.31042	67.75203	1632.05664	-1365.74524	-48.40638	1591.65698	-1514.41028	-61.91939	1579.88318	-1386.23657	-52.49212	1429.63281	-1460.33643	-72.82258	1098.85229	-1452.98486	62.3161	1357.2229	-1452.08069	108.40546	1183.76978	-1461.92749	-121.84213	1255.37769	-1390.35193	12.37941	1389.19849	-1616.724	51.00726	1197.09717	-1701.47339	80.57327	1090.9071	-1724.47729	192.38431	992.74323	-1737.97351	307.47949	954.22784	-1681.1626	274.04016	906.85986	-1721.36426	360.6142	884.45947	-1716.22205	4.63137	1385.1073	-1293.27673	-69.37896	1193.24805	-1215.9696	-80.12445	1071.53699	-1205.07703	-96.27256	952.34271	-1186.68115	-72.43787	800.17041	-1211.43201	-127.51074	818.31403	-1175.57874	-115.53725	733.94971	-1171.51123	106.0551	943.94403	-1568.86609	118.70483	955.1286	-1346.97485	-51.20189	967.39966	-1527.98633	-33.78439	970.13568	-1358.72339	-0.38312	632.32593	-1613.92542	-33.73889	470.09961	-1590.02124	-184.17509	257.66086	-1582.47327	-273.73019	108.14713	-1538.9635	-322.09625	112.96832	-1500.70654	-149.8876	38.87556	-1511.89905	142.6149	628.30981	-1285.99902	187.98094	514.62689	-1320.42944	213.96382	251.85213	-1319.13135	254.68198	71.72922	-1361.03491	222.80434	41.57802	-1408.14063	410.00601	62.76295	-1367.5498	-25.25238	1682.42725	-1446.95142	NaN	NaN	NaN	NaN	NaN	NaN	NaN	NaN	NaN	NaN	NaN	NaN	NaN	NaN	NaN	NaN	NaN	NaN	NaN	NaN	NaN	NaN	NaN	NaN	NaN	NaN	NaN	NaN	NaN	NaN
133	1.32	93.15127	1651.23413	-1495.49158	78.64883	1633.03699	-1364.96777	-37.45406	1592.0979	-1513.4729	-50.74029	1580.20801	-1385.40222	-41.38666	1430.32336	-1459.62585	-60.50855	1099.01489	-1453.07349	73.47541	1358.08899	-1451.26636	119.8661	1184.33228	-1461.33276	-110.19489	1254.98486	-1389.45044	23.44469	1389.45129	-1616.30029	61.82745	1196.651	-1700.37085	90.86638	1090.2804	-1723.22363	202.91605	992.44391	-1736.40637	318.31189	954.70245	-1679.84302	284.95044	906.95544	-1719.59338	371.69666	885.27637	-1714.8728	16.02153	1385.27698	-1292.27307	-57.10732	1192.8927	-1215.17969	-67.62754	1071.13232	-1204.323	-83.13191	951.84369	-1186.1792	-58.96402	799.59222	-1210.87634	-114.59437	817.86719	-1174.94177	-102.52014	733.54944	-1170.91553	118.45932	943.79736	-1568.36133	131.35251	956.00946	-1346.34021	-38.69909	967.5556	-1527.75549	-21.41426	971.90051	-1358.3501	12.30987	631.56372	-1612.65576	-20.52123	469.37537	-1588.9104	-175.57227	260.87933	-1582.42346	-269.18359	113.70988	-1539.92798	-317.5209	120.55445	-1501.95288	-149.4478	38.80983	-1511.8833	155.96996	631.54486	-1286.69775	200.23267	517.83789	-1320.578	223.59496	254.25482	-1316.9845	258.02881	71.61586	-1359.96204	225.25	42.57752	-1406.67053	413.04599	60.45957	-1366.76074	-14.75918	1682.95728	-1446.01038	NaN	NaN	NaN	NaN	NaN	NaN	NaN	NaN	NaN	NaN	NaN	NaN	NaN	NaN	NaN	NaN	NaN	NaN	NaN	NaN	NaN	NaN	NaN	NaN	NaN	NaN	NaN	NaN	NaN	NaN
134	1.33	103.76886	1652.59778	-1494.72375	89.62173	1634.44946	-1364.15784	-26.48706	1593.05725	-1512.36365	-39.60728	1581.12427	-1384.39795	-30.13015	1431.57068	-1458.73901	-48.63948	1099.80151	-1453.37988	84.59031	1359.30066	-1450.54443	131.22635	1185.49963	-1460.67957	-98.66984	1255.40295	-1388.52124	34.70321	1390.28931	-1615.90955	72.40084	1196.64307	-1699.2019	101.01015	1089.91699	-1721.86499	212.9491	992.0152	-1734.74902	328.45206	954.62378	-1678.4585	294.90851	906.61475	-1717.77112	381.83661	885.39349	-1713.46033	27.36673	1385.82043	-1291.30383	-44.59571	1192.80676	-1214.42859	-54.56806	1071.01733	-1203.5282	-69.84441	951.68182	-1185.57715	-45.86187	799.7149	-1210.48035	-100.90049	817.70105	-1174.35852	-88.66236	733.34631	-1170.41711	130.758	944.1474	-1567.72156	144.10646	957.85516	-1345.6853	-26.18655	968.00238	-1527.97961	-9.54593	974.20172	-1358.69641	25.73321	631.3056	-1611.29175	-5.8409	468.87885	-1587.95386	-166.29337	264.43649	-1581.82617	-263.65445	120.15949	-1540.56262	-311.53497	129.08287	-1502.64648	-148.37299	38.97876	-1511.46924	169.50555	635.22766	-1287.24268	212.38443	520.91791	-1319.76611	231.95665	256.37625	-1315.46362	260.5253	72.1918	-1358.8186	226.85393	43.47988	-1405.49597	414.85333	56.94043	-1365.77747	-4.17221	1684.01428	-1445.08191	NaN	NaN	NaN	NaN	NaN	NaN	NaN	NaN	NaN	NaN	NaN	NaN	NaN	NaN	NaN	NaN	NaN	NaN	NaN	NaN	NaN	NaN	NaN	NaN	NaN	NaN	NaN	NaN	NaN	NaN
